<svg width="24" height="24" viewBox="0 0 24 24" fill="none" xmlns="http://www.w3.org/2000/svg">
<path d="M15.4894 4H1V16.2784H15.4894V4Z" stroke="#414141" stroke-width="1.6" stroke-linecap="round" stroke-linejoin="round"/>
<path d="M15.4902 8.72266H19.3541L22.252 11.5561V16.2786H15.4902V8.72266Z" stroke="#414141" stroke-width="1.6" stroke-linecap="round" stroke-linejoin="round"/>
<path d="M5.3485 20.9998C6.68221 20.9998 7.7634 19.9427 7.7634 18.6386C7.7634 17.3345 6.68221 16.2773 5.3485 16.2773C4.01478 16.2773 2.93359 17.3345 2.93359 18.6386C2.93359 19.9427 4.01478 20.9998 5.3485 20.9998Z" stroke="#414141" stroke-width="1.6" stroke-linecap="round" stroke-linejoin="round"/>
<path d="M17.9051 20.9998C19.2389 20.9998 20.32 19.9427 20.32 18.6386C20.32 17.3345 19.2389 16.2773 17.9051 16.2773C16.5714 16.2773 15.4902 17.3345 15.4902 18.6386C15.4902 19.9427 16.5714 20.9998 17.9051 20.9998Z" stroke="#414141" stroke-width="1.6" stroke-linecap="round" stroke-linejoin="round"/>
</svg>
