<svg width="24" height="24" viewBox="0 0 24 24" fill="none" xmlns="http://www.w3.org/2000/svg">
<path d="M9.78175 3.89075C10.3458 3.41075 10.6278 3.17075 10.9218 3.02975C11.2585 2.86873 11.627 2.78516 12.0003 2.78516C12.3735 2.78516 12.742 2.86873 13.0788 3.02975C13.3738 3.16975 13.6558 3.40975 14.2188 3.89075C14.4438 4.08275 14.5558 4.17775 14.6758 4.25775C14.9506 4.44193 15.2592 4.56973 15.5838 4.63375C15.7248 4.66175 15.8718 4.67375 16.1658 4.69775C16.9048 4.75575 17.2738 4.78575 17.5818 4.89475C17.9335 5.0189 18.2531 5.22021 18.517 5.48391C18.7809 5.74762 18.9824 6.06704 19.1068 6.41875C19.2158 6.72775 19.2448 7.09675 19.3038 7.83475C19.3268 8.12875 19.3388 8.27575 19.3668 8.41775C19.4308 8.74175 19.5588 9.05075 19.7428 9.32475C19.8228 9.44475 19.9188 9.55675 20.1098 9.78175C20.5898 10.3458 20.8308 10.6278 20.9718 10.9218C21.1328 11.2585 21.2164 11.627 21.2164 12.0003C21.2164 12.3735 21.1328 12.742 20.9718 13.0788C20.8318 13.3728 20.5908 13.6548 20.1098 14.2188C19.9786 14.3638 19.856 14.5164 19.7428 14.6758C19.5587 14.9503 19.4309 15.2585 19.3668 15.5828C19.3388 15.7248 19.3268 15.8718 19.3038 16.1658C19.2448 16.9038 19.2158 17.2738 19.1068 17.5818C18.9824 17.9335 18.7809 18.2529 18.517 18.5166C18.2531 18.7803 17.9335 18.9816 17.5818 19.1058C17.2738 19.2158 16.9048 19.2448 16.1658 19.3028C15.8718 19.3268 15.7258 19.3388 15.5838 19.3668C15.2592 19.4308 14.9506 19.5586 14.6758 19.7428C14.5167 19.8561 14.3645 19.9786 14.2198 20.1098C13.6558 20.5898 13.3738 20.8298 13.0798 20.9708C12.743 21.1318 12.3745 21.2154 12.0013 21.2154C11.628 21.2154 11.2595 21.1318 10.9228 20.9708C10.6278 20.8308 10.3458 20.5908 9.78275 20.1098C9.63773 19.9786 9.48513 19.856 9.32575 19.7428C9.05095 19.5586 8.74232 19.4308 8.41775 19.3668C8.22517 19.3341 8.03084 19.3127 7.83575 19.3028C7.09675 19.2448 6.72775 19.2148 6.41975 19.1058C6.06796 18.9816 5.74841 18.7803 5.48453 18.5166C5.22065 18.2529 5.01913 17.9335 4.89475 17.5818C4.78575 17.2738 4.75675 16.9038 4.69775 16.1658C4.68818 15.9704 4.66714 15.7757 4.63475 15.5828C4.57061 15.2585 4.44281 14.9503 4.25875 14.6758C4.17875 14.5558 4.08275 14.4438 3.89175 14.2188C3.41175 13.6548 3.17075 13.3728 3.02975 13.0788C2.86873 12.742 2.78516 12.3735 2.78516 12.0003C2.78516 11.627 2.86873 11.2585 3.02975 10.9218C3.17075 10.6278 3.41075 10.3458 3.89175 9.78175C4.08275 9.55675 4.17875 9.44475 4.25875 9.32475C4.44281 9.05025 4.57061 8.74197 4.63475 8.41775C4.66275 8.27575 4.67475 8.12875 4.69775 7.83475C4.75675 7.09675 4.78575 6.72775 4.89475 6.41875C5.01924 6.06694 5.22091 5.74745 5.48497 5.48374C5.74902 5.22003 6.06877 5.01878 6.42075 4.89475C6.72875 4.78575 7.09775 4.75575 7.83675 4.69775C8.13075 4.67375 8.27675 4.66175 8.41875 4.63375C8.74332 4.56973 9.05195 4.44193 9.32675 4.25775C9.44675 4.17775 9.55775 4.08275 9.78175 3.89075Z" stroke="#DA5135" stroke-width="1.6"/>
<path d="M9 15L15 9" stroke="#DA5135" stroke-width="1.4" stroke-linecap="round"/>
<path d="M15 14.5C15 14.6326 14.9473 14.7598 14.8536 14.8536C14.7598 14.9473 14.6326 15 14.5 15C14.3674 15 14.2402 14.9473 14.1464 14.8536C14.0527 14.7598 14 14.6326 14 14.5C14 14.3674 14.0527 14.2402 14.1464 14.1464C14.2402 14.0527 14.3674 14 14.5 14C14.6326 14 14.7598 14.0527 14.8536 14.1464C14.9473 14.2402 15 14.3674 15 14.5ZM10 9.5C10 9.63261 9.94732 9.75978 9.85355 9.85355C9.75978 9.94732 9.63261 10 9.5 10C9.36739 10 9.24022 9.94732 9.14645 9.85355C9.05268 9.75978 9 9.63261 9 9.5C9 9.36739 9.05268 9.24022 9.14645 9.14645C9.24022 9.05268 9.36739 9 9.5 9C9.63261 9 9.75978 9.05268 9.85355 9.14645C9.94732 9.24022 10 9.36739 10 9.5Z" stroke="#DA5135"/>
</svg>
