<svg aria-hidden="true" style="position: absolute; width: 0; height: 0; overflow: hidden;" version="1.1" xmlns="http://www.w3.org/2000/svg" xmlns:xlink="http://www.w3.org/1999/xlink">
<defs>
<symbol id="icon-burger" viewBox="0 0 32 32">
<path stroke-linejoin="round" stroke-linecap="round" stroke-miterlimit="4" stroke-width="2" d="M28 13.332h-24"></path>
<path stroke-linejoin="round" stroke-linecap="round" stroke-miterlimit="4" stroke-width="2" d="M28 8h-24"></path>
<path stroke-linejoin="round" stroke-linecap="round" stroke-miterlimit="4" stroke-width="2" d="M28 18.668h-24"></path>
<path stroke-linejoin="round" stroke-linecap="round" stroke-miterlimit="4" stroke-width="2" d="M28 24h-24"></path>
</symbol>
<symbol id="icon-cart" viewBox="0 0 32 32">
<path stroke-linejoin="round" stroke-linecap="round" stroke-miterlimit="4" stroke-width="2.6667" d="M12 29.333c0.736 0 1.333-0.597 1.333-1.333s-0.597-1.333-1.333-1.333c-0.736 0-1.333 0.597-1.333 1.333s0.597 1.333 1.333 1.333z"></path>
<path stroke-linejoin="round" stroke-linecap="round" stroke-miterlimit="4" stroke-width="2.6667" d="M26.667 29.333c0.736 0 1.333-0.597 1.333-1.333s-0.597-1.333-1.333-1.333c-0.736 0-1.333 0.597-1.333 1.333s0.597 1.333 1.333 1.333z"></path>
<path stroke-linejoin="round" stroke-linecap="round" stroke-miterlimit="4" stroke-width="2.1333" d="M1.333 1.333h5.333l3.573 17.853c0.122 0.614 0.456 1.165 0.943 1.558s1.098 0.601 1.723 0.589h12.96c0.626 0.012 1.236-0.197 1.723-0.589s0.821-0.944 0.943-1.558l2.133-11.187h-22.667"></path>
</symbol>
<symbol id="icon-delivery" viewBox="0 0 32 32">
<path stroke-linejoin="round" stroke-linecap="round" stroke-miterlimit="4" stroke-width="2.1333" d="M20.653 5.333h-19.319v16.371h19.319v-16.371z"></path>
<path stroke-linejoin="round" stroke-linecap="round" stroke-miterlimit="4" stroke-width="2.1333" d="M20.654 11.63h5.152l3.864 3.778v6.297h-9.016v-10.075z"></path>
<path stroke-linejoin="round" stroke-linecap="round" stroke-miterlimit="4" stroke-width="2.1333" d="M7.131 28c1.778 0 3.22-1.409 3.22-3.148s-1.442-3.148-3.22-3.148c-1.778 0-3.22 1.41-3.22 3.148s1.442 3.148 3.22 3.148z"></path>
<path stroke-linejoin="round" stroke-linecap="round" stroke-miterlimit="4" stroke-width="2.1333" d="M23.873 28c1.778 0 3.22-1.409 3.22-3.148s-1.441-3.148-3.22-3.148c-1.778 0-3.22 1.41-3.22 3.148s1.442 3.148 3.22 3.148z"></path>
</symbol>
<symbol id="icon-heart" viewBox="0 0 32 32">
<path stroke-linejoin="round" stroke-linecap="round" stroke-miterlimit="4" stroke-width="2.1333" d="M27.38 7.337c-0.619-0.635-1.354-1.139-2.163-1.483s-1.676-0.521-2.552-0.521c-0.876 0-1.743 0.177-2.552 0.521s-1.544 0.848-2.163 1.483l-1.285 1.318-1.285-1.318c-1.25-1.283-2.946-2.003-4.714-2.003s-3.464 0.721-4.714 2.003c-1.25 1.283-1.953 3.022-1.953 4.836s0.702 3.554 1.953 4.836l10.714 10.99 10.713-10.99c0.619-0.635 1.111-1.389 1.446-2.219s0.508-1.719 0.508-2.617c0-0.898-0.173-1.788-0.508-2.617s-0.826-1.584-1.446-2.219z"></path>
</symbol>
<symbol id="icon-help" viewBox="0 0 32 32">
<path stroke-linejoin="round" stroke-linecap="round" stroke-miterlimit="4" stroke-width="2.1333" d="M28.187 17h-4c-0.53 0-1.039 0.211-1.414 0.586s-0.586 0.884-0.586 1.414v5c0 0.53 0.211 1.039 0.586 1.414s0.884 0.586 1.414 0.586h2c0.53 0 1.039-0.211 1.414-0.586s0.586-0.884 0.586-1.414v-7zM28.187 17c0-1.584-0.314-3.153-0.923-4.615s-1.502-2.79-2.627-3.905-2.46-1.997-3.927-2.595c-1.467-0.597-3.039-0.898-4.623-0.885-1.583-0.012-3.153 0.29-4.619 0.888s-2.799 1.48-3.923 2.595c-1.124 1.115-2.015 2.442-2.624 3.904s-0.922 3.029-0.922 4.612v7c0 0.53 0.211 1.039 0.586 1.414s0.884 0.586 1.414 0.586h2c0.53 0 1.039-0.211 1.414-0.586s0.586-0.884 0.586-1.414v-5c0-0.53-0.211-1.039-0.586-1.414s-0.884-0.586-1.414-0.586h-4"></path>
</symbol>
<symbol id="icon-sales" viewBox="0 0 32 32">
<path stroke-linejoin="miter" stroke-linecap="butt" stroke-miterlimit="4" stroke-width="2.1333" d="M13.042 5.188c0.752-0.64 1.128-0.96 1.52-1.148 0.449-0.215 0.94-0.326 1.438-0.326s0.989 0.111 1.438 0.326c0.393 0.187 0.769 0.507 1.52 1.148 0.3 0.256 0.449 0.383 0.609 0.489 0.366 0.246 0.778 0.416 1.211 0.501 0.188 0.037 0.384 0.053 0.776 0.085 0.985 0.077 1.477 0.117 1.888 0.263 0.469 0.166 0.895 0.434 1.247 0.786s0.621 0.778 0.786 1.246c0.145 0.412 0.184 0.904 0.263 1.888 0.031 0.392 0.047 0.588 0.084 0.777 0.085 0.432 0.256 0.844 0.501 1.209 0.107 0.16 0.235 0.309 0.489 0.609 0.64 0.752 0.961 1.128 1.149 1.52 0.215 0.449 0.326 0.94 0.326 1.438s-0.111 0.989-0.326 1.438c-0.187 0.392-0.508 0.768-1.149 1.52-0.175 0.193-0.338 0.397-0.489 0.609-0.245 0.366-0.416 0.777-0.501 1.209-0.037 0.189-0.053 0.385-0.084 0.777-0.079 0.984-0.117 1.477-0.263 1.888-0.166 0.469-0.435 0.895-0.786 1.246s-0.778 0.62-1.247 0.786c-0.411 0.147-0.903 0.185-1.888 0.263-0.392 0.032-0.587 0.048-0.776 0.085-0.433 0.085-0.844 0.256-1.211 0.501-0.212 0.151-0.415 0.314-0.608 0.489-0.752 0.64-1.128 0.96-1.52 1.148-0.449 0.215-0.94 0.326-1.438 0.326s-0.989-0.111-1.438-0.326c-0.393-0.187-0.769-0.507-1.52-1.148-0.193-0.175-0.397-0.338-0.609-0.489-0.366-0.246-0.778-0.416-1.211-0.501-0.257-0.044-0.516-0.072-0.776-0.085-0.985-0.077-1.477-0.117-1.888-0.263-0.469-0.166-0.895-0.434-1.247-0.786s-0.621-0.777-0.786-1.246c-0.145-0.411-0.184-0.904-0.263-1.888-0.013-0.261-0.041-0.52-0.084-0.777-0.086-0.432-0.256-0.843-0.501-1.209-0.107-0.16-0.235-0.309-0.489-0.609-0.64-0.752-0.961-1.128-1.149-1.52-0.215-0.449-0.326-0.94-0.326-1.438s0.111-0.989 0.326-1.438c0.188-0.392 0.508-0.768 1.149-1.52 0.255-0.3 0.383-0.449 0.489-0.609 0.245-0.366 0.416-0.777 0.501-1.209 0.037-0.189 0.053-0.385 0.084-0.777 0.079-0.984 0.117-1.476 0.263-1.888 0.166-0.469 0.435-0.895 0.787-1.247s0.778-0.62 1.248-0.785c0.411-0.145 0.903-0.185 1.888-0.263 0.392-0.032 0.587-0.048 0.776-0.085 0.433-0.085 0.844-0.256 1.211-0.501 0.16-0.107 0.308-0.233 0.607-0.489z"></path>
<path stroke-linejoin="miter" stroke-linecap="round" stroke-miterlimit="4" stroke-width="1.8667" d="M12 20l8-8"></path>
<path stroke-linejoin="miter" stroke-linecap="butt" stroke-miterlimit="4" stroke-width="1.3333" d="M20 19.333c0 0.177-0.070 0.346-0.195 0.471s-0.295 0.195-0.471 0.195-0.346-0.070-0.471-0.195c-0.125-0.125-0.195-0.295-0.195-0.471s0.070-0.346 0.195-0.471c0.125-0.125 0.295-0.195 0.471-0.195s0.346 0.070 0.471 0.195c0.125 0.125 0.195 0.295 0.195 0.471zM13.333 12.667c0 0.177-0.070 0.346-0.195 0.471s-0.295 0.195-0.471 0.195c-0.177 0-0.346-0.070-0.471-0.195s-0.195-0.295-0.195-0.471c0-0.177 0.070-0.346 0.195-0.471s0.295-0.195 0.471-0.195c0.177 0 0.346 0.070 0.471 0.195s0.195 0.295 0.195 0.471z"></path>
</symbol>
<symbol id="icon-search" viewBox="0 0 32 32">
<path stroke-linejoin="round" stroke-linecap="round" stroke-miterlimit="4" stroke-width="2.1333" d="M14.667 25.333c5.891 0 10.667-4.776 10.667-10.667s-4.776-10.667-10.667-10.667c-5.891 0-10.667 4.776-10.667 10.667s4.776 10.667 10.667 10.667z"></path>
<path stroke-linejoin="round" stroke-linecap="round" stroke-miterlimit="4" stroke-width="2.1333" d="M28.001 27.998l-5.8-5.8"></path>
</symbol>
<symbol id="icon-user" viewBox="0 0 32 32">
<path fill="none" stroke="#fcbc5a" style="stroke: var(--color1, #fcbc5a)" stroke-linejoin="miter" stroke-linecap="butt" stroke-miterlimit="4" stroke-width="1.5238" d="M31.238 16c0 8.416-6.822 15.238-15.238 15.238s-15.238-6.822-15.238-15.238c0-8.416 6.822-15.238 15.238-15.238s15.238 6.822 15.238 15.238z"></path>
<path fill="none" stroke="#000" style="stroke: var(--color2, #000)" stroke-linejoin="round" stroke-linecap="round" stroke-miterlimit="4" stroke-width="1.5238" d="M21.542 22.234v-1.385c0-0.735-0.292-1.439-0.811-1.959s-1.224-0.811-1.959-0.811h-5.541c-0.735 0-1.44 0.292-1.959 0.811s-0.812 1.224-0.812 1.959v1.385"></path>
<path fill="none" stroke="#000" style="stroke: var(--color2, #000)" stroke-linejoin="round" stroke-linecap="round" stroke-miterlimit="4" stroke-width="1.5238" d="M16.001 15.307c1.53 0 2.771-1.24 2.771-2.771s-1.24-2.771-2.771-2.771-2.771 1.24-2.771 2.771c0 1.53 1.24 2.771 2.771 2.771z"></path>
</symbol>
</defs>
</svg>
