<svg width="42" height="42" viewBox="0 0 42 42" fill="none" xmlns="http://www.w3.org/2000/svg">
<circle cx="21" cy="21" r="20" stroke="#FCBC5A" stroke-width="2"/>
<path d="M28.274 29.1821V27.3639C28.274 26.3995 27.8909 25.4746 27.2089 24.7926C26.527 24.1107 25.602 23.7275 24.6376 23.7275H17.3649C16.4005 23.7275 15.4755 24.1107 14.7936 24.7926C14.1116 25.4746 13.7285 26.3995 13.7285 27.3639V29.1821" stroke="black" stroke-width="2" stroke-linecap="round" stroke-linejoin="round"/>
<path d="M21.0016 20.0901C23.0099 20.0901 24.638 18.4621 24.638 16.4537C24.638 14.4454 23.0099 12.8174 21.0016 12.8174C18.9933 12.8174 17.3652 14.4454 17.3652 16.4537C17.3652 18.4621 18.9933 20.0901 21.0016 20.0901Z" stroke="black" stroke-width="2" stroke-linecap="round" stroke-linejoin="round"/>
</svg>
